<svg width="1847" height="1957" xmlns="http://www.w3.org/2000/svg" xmlns:xlink="http://www.w3.org/1999/xlink" xml:space="preserve" overflow="hidden"><defs><clipPath id="clip0"><rect x="1159" y="220" width="1847" height="1957"/></clipPath></defs><g clip-path="url(#clip0)" transform="translate(-1159 -220)"><path d="M1332 1355C1332 964.535 1648.53 648 2039 648 2429.47 648 2746 964.535 2746 1355 2746 1745.47 2429.47 2062 2039 2062 1648.53 2062 1332 1745.47 1332 1355Z" stroke="#000000" stroke-width="27.5" stroke-linecap="butt" stroke-linejoin="miter" stroke-miterlimit="8" stroke-opacity="1" fill="none" fill-rule="evenodd"/><path d="M1471 1338C1471 1023.75 1725.75 769 2040 769 2354.25 769 2609 1023.75 2609 1338 2609 1652.25 2354.25 1907 2040 1907 1725.75 1907 1471 1652.25 1471 1338Z" stroke="#000000" stroke-width="27.5" stroke-linecap="butt" stroke-linejoin="miter" stroke-miterlimit="8" stroke-opacity="1" fill="#000000" fill-rule="evenodd" fill-opacity="1"/><path d="M2224 660C2395.37 678.34 2566.74 696.681 2679.24 801.483 2791.74 906.286 2876.77 1151.26 2899.01 1288.81 2921.25 1426.37 2889.86 1516.1 2812.67 1626.8 2735.49 1737.5 2573.93 1845.25 2424.15 1953" stroke="#000000" stroke-width="27.5" stroke-linecap="butt" stroke-linejoin="miter" stroke-miterlimit="8" stroke-opacity="1" fill="none" fill-rule="evenodd"/><path d="M2039 639.986C2080.26 619.023 2121.52 598.06 2215.84 596.75 2310.15 595.44 2491.57 585.613 2604.88 632.125 2718.19 678.637 2831.49 782.799 2895.68 875.823 2959.86 968.848 2989.34 1087.42 2989.99 1190.27 2990.65 1293.12 2945.13 1389.1 2899.61 1489" stroke="#000000" stroke-width="27.5" stroke-linecap="butt" stroke-linejoin="miter" stroke-miterlimit="8" stroke-opacity="1" fill="none" fill-rule="evenodd"/><path d="M2188 597.043C2247.58 562.952 2307.17 528.861 2396.21 526.238 2485.26 523.616 2637.17 542.628 2722.29 581.308 2807.4 619.988 2864.37 686.859 2906.93 758.318 2949.49 829.778 2943.92 923.856 2958 1014" stroke="#000000" stroke-width="27.5" stroke-linecap="butt" stroke-linejoin="miter" stroke-miterlimit="8" stroke-opacity="1" fill="none" fill-rule="evenodd"/><path d="M2161 592.84C2185.87 552.238 2210.74 511.636 2282.74 486.751 2354.73 461.866 2505.92 429.123 2592.97 443.53 2680.01 457.937 2760.52 531.282 2805.02 573.194 2849.53 615.106 2854.76 655.053 2860 695" stroke="#000000" stroke-width="27.5" stroke-linecap="butt" stroke-linejoin="miter" stroke-miterlimit="8" stroke-opacity="1" fill="none" fill-rule="evenodd"/><path d="M2172 562C2179.86 525.366 2187.73 488.733 2242.78 456.024 2297.82 423.316 2417.09 357.244 2502.29 365.749 2587.48 374.253 2666.77 456.351 2750 522.75" stroke="#000000" stroke-width="27.5" stroke-linecap="butt" stroke-linejoin="miter" stroke-miterlimit="8" stroke-opacity="1" fill="none" fill-rule="evenodd"/><path d="M2165.1 554C2161.5 507.74 2157.91 461.48 2196.5 420.141 2235.09 378.803 2336.48 319.748 2396.66 305.968 2456.84 292.189 2517.02 317.123 2557.58 337.464 2598.14 357.805 2619.07 392.91 2640 428.016" stroke="#000000" stroke-width="27.5" stroke-linecap="butt" stroke-linejoin="miter" stroke-miterlimit="8" stroke-opacity="1" fill="none" fill-rule="evenodd"/><path d="M2168.6 570C2147.3 542.453 2126 514.907 2141.07 467.684 2156.15 420.461 2209.89 318.802 2259.05 286.664 2308.21 254.526 2386.86 267.644 2436.02 274.858 2485.18 282.073 2519.59 313.883 2554 337.822" stroke="#000000" stroke-width="27.5" stroke-linecap="butt" stroke-linejoin="miter" stroke-miterlimit="8" stroke-opacity="1" fill="none" fill-rule="evenodd"/><path d="M2141.21 526C2117.61 505.109 2094 484.219 2094 443.743 2094 403.267 2114.33 317.746 2141.21 283.146 2168.09 248.546 2213.34 238.101 2255.3 236.142 2297.27 234.184 2345.13 252.789 2393 271.395" stroke="#000000" stroke-width="27.5" stroke-linecap="butt" stroke-linejoin="miter" stroke-miterlimit="8" stroke-opacity="1" fill="none" fill-rule="evenodd"/><path d="M2097.94 487C2067 470.283 2036.06 453.567 2022.89 420.133 2009.72 386.7 1994.58 315.244 2018.94 286.4 2043.3 257.555 2110.12 256.244 2173 251" stroke="#000000" stroke-width="27.5" stroke-linecap="butt" stroke-linejoin="miter" stroke-miterlimit="8" stroke-opacity="1" fill="none" fill-rule="evenodd"/><path d="M2054.45 479C2009.81 465.909 1965.16 452.818 1941.05 431.872 1916.94 410.926 1905.86 382.126 1909.77 353.325 1913.68 324.525 1937.14 274.779 1964.51 259.07 1991.88 243.36 2032.94 251.215 2074 259.07" stroke="#000000" stroke-width="27.5" stroke-linecap="butt" stroke-linejoin="miter" stroke-miterlimit="8" stroke-opacity="1" fill="none" fill-rule="evenodd"/><path d="M1987.83 455.359C1974.75 473.046 1961.67 490.733 1964.28 502.525 1966.9 514.316 2003.53 526.108 2003.53 526.108 2013.34 528.728 2018.57 511.696 2023.15 518.247 2027.73 524.798 2039.5 552.966 2031 565.413 2022.49 577.86 2000.26 594.237 1972.13 592.926 1944.01 591.616 1884.49 581.79 1862.25 557.552 1840.02 533.313 1836.09 482.872 1838.71 447.498 1841.33 412.123 1862.91 368.888 1877.95 345.305 1892.99 321.722 1910.98 313.861 1928.97 306" stroke="#000000" stroke-width="27.5" stroke-linecap="butt" stroke-linejoin="miter" stroke-miterlimit="8" stroke-opacity="1" fill="none" fill-rule="evenodd"/><text fill="#FFFFFF" fill-opacity="1" font-family="Lato,Lato_MSFontService,sans-serif" font-style="normal" font-variant="normal" font-weight="700" font-stretch="normal" font-size="688" text-anchor="start" direction="ltr" writing-mode="lr-tb" unicode-bidi="normal" text-decoration="none" transform="matrix(1 0 0 1 1572.88 1617)">CC</text></g></svg>