<svg width="2337" height="2475" xmlns="http://www.w3.org/2000/svg" xmlns:xlink="http://www.w3.org/1999/xlink" xml:space="preserve" overflow="hidden"><defs><clipPath id="clip0"><rect x="1031" y="0" width="2337" height="2475"/></clipPath></defs><g clip-path="url(#clip0)" transform="translate(-1031 0)"><path d="M1684.57 1713.66C1684.57 1219.84 2084.88 819.52 2578.7 819.52 3072.53 819.52 3472.84 1219.84 3472.84 1713.66 3472.84 2207.48 3072.53 2607.79 2578.7 2607.79 2084.88 2607.79 1684.57 2207.48 1684.57 1713.66Z" stroke="#FFFFFF" stroke-width="34.779" stroke-linecap="butt" stroke-linejoin="miter" stroke-miterlimit="8" stroke-opacity="1" fill="#FFFFFF" fill-rule="evenodd" fill-opacity="1" transform="matrix(1.00005 0 0 1 -433.85 -278.232)"/><path d="M1860.36 1692.16C1860.36 1294.73 2182.54 972.547 2579.97 972.547 2977.4 972.547 3299.58 1294.73 3299.58 1692.16 3299.58 2089.59 2977.4 2411.77 2579.97 2411.77 2182.54 2411.77 1860.36 2089.59 1860.36 1692.16Z" stroke="#FFFFFF" stroke-width="34.779" stroke-linecap="butt" stroke-linejoin="miter" stroke-miterlimit="8" stroke-opacity="1" fill="#FFFFFF" fill-rule="evenodd" fill-opacity="1" transform="matrix(1.00005 0 0 1 -433.85 -278.232)"/><path d="M2812.67 834.696C3029.4 857.89 3246.13 881.086 3388.41 1013.63 3530.69 1146.17 3638.22 1455.99 3666.35 1629.95 3694.48 1803.92 3654.78 1917.4 3557.16 2057.4 3459.55 2197.4 3255.23 2333.67 3065.8 2469.94" stroke="#FFFFFF" stroke-width="34.779" stroke-linecap="butt" stroke-linejoin="miter" stroke-miterlimit="8" stroke-opacity="1" fill="#FFFFFF" fill-rule="evenodd" fill-opacity="1" transform="matrix(1.00005 0 0 1 -433.85 -278.232)"/><path d="M2578.7 809.384C2630.89 782.873 2683.07 756.361 2802.35 754.704 2921.63 753.048 3151.07 740.619 3294.37 799.443 3437.67 858.266 3580.96 989.999 3662.14 1107.65 3743.31 1225.29 3780.59 1375.25 3781.41 1505.32 3782.25 1635.4 3724.68 1756.78 3667.11 1883.12" stroke="#FFFFFF" stroke-width="34.779" stroke-linecap="butt" stroke-linejoin="miter" stroke-miterlimit="8" stroke-opacity="1" fill="#FFFFFF" fill-rule="evenodd" fill-opacity="1" transform="matrix(1.00005 0 0 1 -433.85 -278.232)"/><path d="M2767.14 755.075C2842.49 711.96 2917.86 668.846 3030.46 665.528 3143.09 662.212 3335.2 686.257 3442.86 735.175 3550.49 784.093 3622.54 868.664 3676.37 959.038 3730.19 1049.41 3723.15 1168.39 3740.96 1282.4" stroke="#FFFFFF" stroke-width="34.779" stroke-linecap="butt" stroke-linejoin="miter" stroke-miterlimit="8" stroke-opacity="1" fill="#FFFFFF" fill-rule="evenodd" fill-opacity="1" transform="matrix(1.00005 0 0 1 -433.85 -278.232)"/><path d="M2733 749.759C2764.45 698.41 2795.9 647.061 2886.96 615.59 2978.01 584.118 3169.21 542.708 3279.31 560.928 3389.38 579.149 3491.2 671.907 3547.48 724.913 3603.77 777.919 3610.39 828.44 3617.02 878.96" stroke="#FFFFFF" stroke-width="34.779" stroke-linecap="butt" stroke-linejoin="miter" stroke-miterlimit="8" stroke-opacity="1" fill="#FFFFFF" fill-rule="evenodd" fill-opacity="1" transform="matrix(1.00005 0 0 1 -433.85 -278.232)"/><path d="M2746.91 710.756C2756.85 664.426 2766.8 618.096 2836.42 576.729 2906.03 535.364 3056.87 451.803 3164.62 462.559 3272.36 473.314 3372.64 577.143 3477.9 661.117" stroke="#FFFFFF" stroke-width="34.779" stroke-linecap="butt" stroke-linejoin="miter" stroke-miterlimit="8" stroke-opacity="1" fill="#FFFFFF" fill-rule="evenodd" fill-opacity="1" transform="matrix(1.00005 0 0 1 -433.85 -278.232)"/><path d="M2738.18 700.639C2733.63 642.134 2729.09 583.63 2777.89 531.348 2826.7 479.069 2954.92 404.382 3031.03 386.955 3107.14 369.529 3183.25 401.063 3234.55 426.788 3285.84 452.513 3312.31 496.91 3338.78 541.308" stroke="#FFFFFF" stroke-width="34.779" stroke-linecap="butt" stroke-linejoin="miter" stroke-miterlimit="8" stroke-opacity="1" fill="#FFFFFF" fill-rule="evenodd" fill-opacity="1" transform="matrix(1.00005 0 0 1 -433.85 -278.232)"/><path d="M2742.61 720.874C2715.67 686.035 2688.73 651.198 2707.79 591.476 2726.86 531.753 2794.83 403.186 2857 362.541 2919.17 321.897 3018.64 338.487 3080.81 347.61 3142.98 356.735 3186.5 396.965 3230.02 427.24" stroke="#FFFFFF" stroke-width="34.779" stroke-linecap="butt" stroke-linejoin="miter" stroke-miterlimit="8" stroke-opacity="1" fill="#FFFFFF" fill-rule="evenodd" fill-opacity="1" transform="matrix(1.00005 0 0 1 -433.85 -278.232)"/><path d="M2707.97 665.227C2678.12 638.807 2648.26 612.387 2648.26 561.198 2648.26 510.008 2673.97 401.85 2707.97 358.092 2741.96 314.334 2799.19 301.124 2852.26 298.647 2905.34 296.17 2965.86 319.7 3026.41 343.231" stroke="#FFFFFF" stroke-width="34.779" stroke-linecap="butt" stroke-linejoin="miter" stroke-miterlimit="8" stroke-opacity="1" fill="#FFFFFF" fill-rule="evenodd" fill-opacity="1" transform="matrix(1.00005 0 0 1 -433.85 -278.232)"/><path d="M2653.25 615.904C2614.12 594.763 2574.99 573.622 2558.33 531.338 2541.67 489.056 2522.53 398.686 2553.33 362.207 2584.14 325.727 2668.65 324.069 2748.17 317.437" stroke="#FFFFFF" stroke-width="34.779" stroke-linecap="butt" stroke-linejoin="miter" stroke-miterlimit="8" stroke-opacity="1" fill="#FFFFFF" fill-rule="evenodd" fill-opacity="1" transform="matrix(1.00005 0 0 1 -433.85 -278.232)"/><path d="M2598.24 605.787C2541.79 589.231 2485.32 572.675 2454.83 546.185 2424.34 519.694 2410.32 483.271 2415.27 446.847 2420.21 410.424 2449.88 347.51 2484.5 327.643 2519.11 307.775 2571.04 317.709 2622.97 327.643" stroke="#FFFFFF" stroke-width="34.779" stroke-linecap="butt" stroke-linejoin="miter" stroke-miterlimit="8" stroke-opacity="1" fill="#FFFFFF" fill-rule="evenodd" fill-opacity="1" transform="matrix(1.00005 0 0 1 -433.85 -278.232)"/><path d="M2513.99 575.888C2497.45 598.257 2480.91 620.626 2484.21 635.539 2487.52 650.451 2533.85 665.364 2533.85 665.364 2546.25 668.677 2552.87 647.137 2558.66 655.422 2564.45 663.707 2579.34 699.331 2568.59 715.073 2557.82 730.814 2529.71 751.526 2494.13 749.868 2458.57 748.211 2383.3 735.784 2355.17 705.131 2327.06 674.476 2322.09 610.684 2325.4 565.947 2328.71 521.208 2356.01 466.529 2375.03 436.704 2394.05 406.879 2416.8 396.937 2439.55 386.995" stroke="#FFFFFF" stroke-width="34.779" stroke-linecap="butt" stroke-linejoin="miter" stroke-miterlimit="8" stroke-opacity="1" fill="#FFFFFF" fill-rule="evenodd" fill-opacity="1" transform="matrix(1.00005 0 0 1 -433.85 -278.232)"/><text fill="#FFFFFF" fill-opacity="1" font-family="Lato,Lato_MSFontService,sans-serif" font-style="normal" font-variant="normal" font-weight="700" font-stretch="normal" font-size="688" text-anchor="start" direction="ltr" writing-mode="lr-tb" unicode-bidi="normal" text-decoration="none" transform="matrix(1.26475 0 0 1.26469 1555.46 1767)">CC</text><text fill="#000000" fill-opacity="1" font-family="Lato,Lato_MSFontService,sans-serif" font-style="normal" font-variant="normal" font-weight="700" font-stretch="normal" font-size="871" text-anchor="start" direction="ltr" writing-mode="lr-tb" unicode-bidi="normal" text-decoration="none" transform="matrix(1 0 0 1 1554.91 1766)">CC</text></g></svg>