<svg width="4652" height="1447" xmlns="http://www.w3.org/2000/svg" xmlns:xlink="http://www.w3.org/1999/xlink" xml:space="preserve" overflow="hidden"><defs><clipPath id="clip0"><rect x="96" y="-146" width="4652" height="1447"/></clipPath><clipPath id="clip1"><rect x="97" y="183" width="682" height="723"/></clipPath><clipPath id="clip2"><rect x="97" y="183" width="682" height="723"/></clipPath><clipPath id="clip3"><rect x="97" y="183" width="682" height="723"/></clipPath><clipPath id="clip4"><rect x="97" y="183" width="682" height="723"/></clipPath></defs><g clip-path="url(#clip0)" transform="translate(-96 146)"><g clip-path="url(#clip1)"><g clip-path="url(#clip2)"><g clip-path="url(#clip3)"><g clip-path="url(#clip4)"><path d="M490.737 499.211C490.737 355.355 607.353 238.737 751.211 238.737 895.068 238.737 1011.68 355.355 1011.68 499.211 1011.68 643.068 895.068 759.684 751.211 759.684 607.353 759.684 490.737 643.068 490.737 499.211Z" stroke="#000000" stroke-width="10.1316" stroke-linecap="butt" stroke-linejoin="miter" stroke-miterlimit="8" stroke-opacity="1" fill="none" fill-rule="evenodd" transform="matrix(1.00077 0 0 1 -329.33 102.947)"/><path d="M541.948 492.948C541.948 377.171 635.803 283.316 751.579 283.316 867.356 283.316 961.211 377.171 961.211 492.948 961.211 608.724 867.356 702.579 751.579 702.579 635.803 702.579 541.948 608.724 541.948 492.948Z" stroke="#000000" stroke-width="10.1316" stroke-linecap="butt" stroke-linejoin="miter" stroke-miterlimit="8" stroke-opacity="1" fill="#000000" fill-rule="evenodd" fill-opacity="1" transform="matrix(1.00077 0 0 1 -329.33 102.947)"/><path d="M819.369 243.158C882.505 249.915 945.641 256.672 987.089 295.283 1028.54 333.895 1059.86 424.149 1068.06 474.825 1076.25 525.505 1064.69 558.563 1036.25 599.348 1007.81 640.132 948.29 679.829 893.108 719.527" stroke="#000000" stroke-width="10.1316" stroke-linecap="butt" stroke-linejoin="miter" stroke-miterlimit="8" stroke-opacity="1" fill="none" fill-rule="evenodd" transform="matrix(1.00077 0 0 1 -329.33 102.947)"/><path d="M751.211 235.784C766.412 228.061 781.613 220.338 816.362 219.855 851.108 219.373 917.947 215.752 959.693 232.888 1001.44 250.024 1043.18 288.4 1066.83 322.672 1090.48 356.944 1101.34 400.629 1101.58 438.521 1101.82 476.413 1085.05 511.774 1068.28 548.579" stroke="#000000" stroke-width="10.1316" stroke-linecap="butt" stroke-linejoin="miter" stroke-miterlimit="8" stroke-opacity="1" fill="none" fill-rule="evenodd" transform="matrix(1.00077 0 0 1 -329.33 102.947)"/><path d="M806.106 219.963C828.056 207.403 850.01 194.844 882.814 193.877 915.622 192.911 971.589 199.916 1002.95 214.166 1034.31 228.417 1055.29 253.053 1070.97 279.38 1086.65 305.708 1084.6 340.368 1089.79 373.579" stroke="#000000" stroke-width="10.1316" stroke-linecap="butt" stroke-linejoin="miter" stroke-miterlimit="8" stroke-opacity="1" fill="none" fill-rule="evenodd" transform="matrix(1.00077 0 0 1 -329.33 102.947)"/><path d="M796.158 218.415C805.321 203.456 814.483 188.498 841.01 179.329 867.532 170.161 923.234 158.098 955.305 163.406 987.372 168.714 1017.03 195.736 1033.43 211.177 1049.83 226.618 1051.75 241.335 1053.68 256.053" stroke="#000000" stroke-width="10.1316" stroke-linecap="butt" stroke-linejoin="miter" stroke-miterlimit="8" stroke-opacity="1" fill="none" fill-rule="evenodd" transform="matrix(1.00077 0 0 1 -329.33 102.947)"/><path d="M800.211 207.053C803.107 193.556 806.006 180.06 826.288 168.009 846.566 155.959 890.507 131.616 921.897 134.75 953.282 137.883 982.495 168.129 1013.16 192.592" stroke="#000000" stroke-width="10.1316" stroke-linecap="butt" stroke-linejoin="miter" stroke-miterlimit="8" stroke-opacity="1" fill="none" fill-rule="evenodd" transform="matrix(1.00077 0 0 1 -329.33 102.947)"/><path d="M797.669 204.105C796.342 187.062 795.02 170.019 809.237 154.789 823.455 139.559 860.809 117.802 882.98 112.725 905.152 107.649 927.323 116.835 942.267 124.329 957.21 131.823 964.921 144.756 972.632 157.69" stroke="#000000" stroke-width="10.1316" stroke-linecap="butt" stroke-linejoin="miter" stroke-miterlimit="8" stroke-opacity="1" fill="none" fill-rule="evenodd" transform="matrix(1.00077 0 0 1 -329.33 102.947)"/><path d="M798.958 210C791.111 199.851 783.263 189.703 788.816 172.305 794.371 154.907 814.17 117.453 832.282 105.613 850.393 93.7728 879.37 98.6057 897.481 101.264 915.593 103.922 928.27 115.641 940.948 124.461" stroke="#000000" stroke-width="10.1316" stroke-linecap="butt" stroke-linejoin="miter" stroke-miterlimit="8" stroke-opacity="1" fill="none" fill-rule="evenodd" transform="matrix(1.00077 0 0 1 -329.33 102.947)"/><path d="M788.867 193.79C780.172 186.093 771.474 178.397 771.474 163.484 771.474 148.572 778.964 117.064 788.867 104.317 798.77 91.5696 815.441 87.7215 830.9 86.9997 846.363 86.2783 863.995 93.1328 881.632 99.9877" stroke="#000000" stroke-width="10.1316" stroke-linecap="butt" stroke-linejoin="miter" stroke-miterlimit="8" stroke-opacity="1" fill="none" fill-rule="evenodd" transform="matrix(1.00077 0 0 1 -329.33 102.947)"/><path d="M772.925 179.421C761.527 173.262 750.128 167.104 745.276 154.786 740.423 142.468 734.845 116.143 743.82 105.516 752.795 94.8887 777.413 94.4057 800.579 92.4737" stroke="#000000" stroke-width="10.1316" stroke-linecap="butt" stroke-linejoin="miter" stroke-miterlimit="8" stroke-opacity="1" fill="none" fill-rule="evenodd" transform="matrix(1.00077 0 0 1 -329.33 102.947)"/><path d="M756.903 176.474C740.457 171.651 724.007 166.828 715.124 159.111 706.241 151.394 702.159 140.783 703.6 130.172 705.04 119.562 713.683 101.234 723.767 95.4469 733.851 89.659 748.978 92.5529 764.106 95.4469" stroke="#000000" stroke-width="10.1316" stroke-linecap="butt" stroke-linejoin="miter" stroke-miterlimit="8" stroke-opacity="1" fill="none" fill-rule="evenodd" transform="matrix(1.00077 0 0 1 -329.33 102.947)"/><path d="M732.359 167.764C727.54 174.28 722.721 180.796 723.682 185.141 724.648 189.485 738.143 193.829 738.143 193.829 741.757 194.795 743.684 188.52 745.371 190.933 747.059 193.347 751.395 203.724 748.263 208.31 745.128 212.896 736.938 218.929 726.574 218.447 716.214 217.964 694.286 214.344 686.092 205.414 677.902 196.484 676.454 177.9 677.42 164.868 678.385 151.835 686.336 135.906 691.877 127.218 697.418 118.529 704.045 115.633 710.673 112.737" stroke="#000000" stroke-width="10.1316" stroke-linecap="butt" stroke-linejoin="miter" stroke-miterlimit="8" stroke-opacity="1" fill="none" fill-rule="evenodd" transform="matrix(1.00077 0 0 1 -329.33 102.947)"/><text fill="#FFFFFF" fill-opacity="1" font-family="Lato,Lato_MSFontService,sans-serif" font-style="normal" font-variant="normal" font-weight="700" font-stretch="normal" font-size="688" text-anchor="start" direction="ltr" writing-mode="lr-tb" unicode-bidi="normal" text-decoration="none" transform="matrix(0.368706 0 0 0.368421 250.6 699)">CC</text></g></g></g></g><text fill="#000000" fill-opacity="1" font-family="Lato,Lato_MSFontService,sans-serif" font-style="normal" font-variant="normal" font-weight="700" font-stretch="normal" font-size="688" text-anchor="start" direction="ltr" writing-mode="lr-tb" unicode-bidi="normal" text-decoration="none" transform="matrix(1 0 0 1 898.17 742)">cornucopia</text></g></svg>