<svg width="4359" height="871" xmlns="http://www.w3.org/2000/svg" xmlns:xlink="http://www.w3.org/1999/xlink" xml:space="preserve" overflow="hidden"><defs><clipPath id="clip0"><rect x="96" y="45" width="4359" height="871"/></clipPath><clipPath id="clip1"><rect x="97" y="183" width="682" height="723"/></clipPath><clipPath id="clip2"><rect x="97" y="183" width="682" height="723"/></clipPath><clipPath id="clip3"><rect x="97" y="183" width="682" height="723"/></clipPath><clipPath id="clip4"><rect x="97" y="183" width="682" height="723"/></clipPath></defs><g clip-path="url(#clip0)" transform="translate(-96 -45)"><g clip-path="url(#clip1)"><g clip-path="url(#clip2)"><g clip-path="url(#clip3)"><g clip-path="url(#clip4)"><path d="M490.737 499.211C490.737 355.355 607.353 238.737 751.211 238.737 895.068 238.737 1011.68 355.355 1011.68 499.211 1011.68 643.068 895.068 759.684 751.211 759.684 607.353 759.684 490.737 643.068 490.737 499.211Z" stroke="#FBE5D6" stroke-width="10.1316" stroke-linecap="butt" stroke-linejoin="miter" stroke-miterlimit="8" stroke-opacity="1" fill="none" fill-rule="evenodd" transform="matrix(1.00077 0 0 1 -329.33 102.947)"/><path d="M541.948 492.948C541.948 377.171 635.803 283.316 751.579 283.316 867.356 283.316 961.211 377.171 961.211 492.948 961.211 608.724 867.356 702.579 751.579 702.579 635.803 702.579 541.948 608.724 541.948 492.948Z" stroke="#FBE5D6" stroke-width="10.1316" stroke-linecap="butt" stroke-linejoin="miter" stroke-miterlimit="8" stroke-opacity="1" fill="#FBE5D6" fill-rule="evenodd" fill-opacity="1" transform="matrix(1.00077 0 0 1 -329.33 102.947)"/><path d="M819.369 243.158C882.505 249.915 945.641 256.672 987.089 295.283 1028.54 333.895 1059.86 424.149 1068.06 474.825 1076.25 525.505 1064.69 558.563 1036.25 599.348 1007.81 640.132 948.29 679.829 893.108 719.527" stroke="#FBE5D6" stroke-width="10.1316" stroke-linecap="butt" stroke-linejoin="miter" stroke-miterlimit="8" stroke-opacity="1" fill="none" fill-rule="evenodd" transform="matrix(1.00077 0 0 1 -329.33 102.947)"/><path d="M751.211 235.784C766.412 228.061 781.613 220.338 816.362 219.855 851.108 219.373 917.947 215.752 959.693 232.888 1001.44 250.024 1043.18 288.4 1066.83 322.672 1090.48 356.944 1101.34 400.629 1101.58 438.521 1101.82 476.413 1085.05 511.774 1068.28 548.579" stroke="#FBE5D6" stroke-width="10.1316" stroke-linecap="butt" stroke-linejoin="miter" stroke-miterlimit="8" stroke-opacity="1" fill="none" fill-rule="evenodd" transform="matrix(1.00077 0 0 1 -329.33 102.947)"/><path d="M806.106 219.963C828.056 207.403 850.01 194.844 882.814 193.877 915.622 192.911 971.589 199.916 1002.95 214.166 1034.31 228.417 1055.29 253.053 1070.97 279.38 1086.65 305.708 1084.6 340.368 1089.79 373.579" stroke="#FBE5D6" stroke-width="10.1316" stroke-linecap="butt" stroke-linejoin="miter" stroke-miterlimit="8" stroke-opacity="1" fill="none" fill-rule="evenodd" transform="matrix(1.00077 0 0 1 -329.33 102.947)"/><path d="M796.158 218.415C805.321 203.456 814.483 188.498 841.01 179.329 867.532 170.161 923.234 158.098 955.305 163.406 987.372 168.714 1017.03 195.736 1033.43 211.177 1049.83 226.618 1051.75 241.335 1053.68 256.053" stroke="#FBE5D6" stroke-width="10.1316" stroke-linecap="butt" stroke-linejoin="miter" stroke-miterlimit="8" stroke-opacity="1" fill="none" fill-rule="evenodd" transform="matrix(1.00077 0 0 1 -329.33 102.947)"/><path d="M800.211 207.053C803.107 193.556 806.006 180.06 826.288 168.009 846.566 155.959 890.507 131.616 921.897 134.75 953.282 137.883 982.495 168.129 1013.16 192.592" stroke="#FBE5D6" stroke-width="10.1316" stroke-linecap="butt" stroke-linejoin="miter" stroke-miterlimit="8" stroke-opacity="1" fill="none" fill-rule="evenodd" transform="matrix(1.00077 0 0 1 -329.33 102.947)"/><path d="M797.669 204.105C796.342 187.062 795.02 170.019 809.237 154.789 823.455 139.559 860.809 117.802 882.98 112.725 905.152 107.649 927.323 116.835 942.267 124.329 957.21 131.823 964.921 144.756 972.632 157.69" stroke="#FBE5D6" stroke-width="10.1316" stroke-linecap="butt" stroke-linejoin="miter" stroke-miterlimit="8" stroke-opacity="1" fill="none" fill-rule="evenodd" transform="matrix(1.00077 0 0 1 -329.33 102.947)"/><path d="M798.958 210C791.111 199.851 783.263 189.703 788.816 172.305 794.371 154.907 814.17 117.453 832.282 105.613 850.393 93.7728 879.37 98.6057 897.481 101.264 915.593 103.922 928.27 115.641 940.948 124.461" stroke="#FBE5D6" stroke-width="10.1316" stroke-linecap="butt" stroke-linejoin="miter" stroke-miterlimit="8" stroke-opacity="1" fill="none" fill-rule="evenodd" transform="matrix(1.00077 0 0 1 -329.33 102.947)"/><path d="M788.867 193.79C780.172 186.093 771.474 178.397 771.474 163.484 771.474 148.572 778.964 117.064 788.867 104.317 798.77 91.5696 815.441 87.7215 830.9 86.9997 846.363 86.2783 863.995 93.1328 881.632 99.9877" stroke="#FBE5D6" stroke-width="10.1316" stroke-linecap="butt" stroke-linejoin="miter" stroke-miterlimit="8" stroke-opacity="1" fill="none" fill-rule="evenodd" transform="matrix(1.00077 0 0 1 -329.33 102.947)"/><path d="M772.925 179.421C761.527 173.262 750.128 167.104 745.276 154.786 740.423 142.468 734.845 116.143 743.82 105.516 752.795 94.8887 777.413 94.4057 800.579 92.4737" stroke="#FBE5D6" stroke-width="10.1316" stroke-linecap="butt" stroke-linejoin="miter" stroke-miterlimit="8" stroke-opacity="1" fill="none" fill-rule="evenodd" transform="matrix(1.00077 0 0 1 -329.33 102.947)"/><path d="M756.903 176.474C740.457 171.651 724.007 166.828 715.124 159.111 706.241 151.394 702.159 140.783 703.6 130.172 705.04 119.562 713.683 101.234 723.767 95.4469 733.851 89.659 748.978 92.5529 764.106 95.4469" stroke="#FBE5D6" stroke-width="10.1316" stroke-linecap="butt" stroke-linejoin="miter" stroke-miterlimit="8" stroke-opacity="1" fill="none" fill-rule="evenodd" transform="matrix(1.00077 0 0 1 -329.33 102.947)"/><path d="M732.359 167.764C727.54 174.28 722.721 180.796 723.682 185.141 724.648 189.485 738.143 193.829 738.143 193.829 741.757 194.795 743.684 188.52 745.371 190.933 747.059 193.347 751.395 203.724 748.263 208.31 745.128 212.896 736.938 218.929 726.574 218.447 716.214 217.964 694.286 214.344 686.092 205.414 677.902 196.484 676.454 177.9 677.42 164.868 678.385 151.835 686.336 135.906 691.877 127.218 697.418 118.529 704.045 115.633 710.673 112.737" stroke="#FBE5D6" stroke-width="10.1316" stroke-linecap="butt" stroke-linejoin="miter" stroke-miterlimit="8" stroke-opacity="1" fill="none" fill-rule="evenodd" transform="matrix(1.00077 0 0 1 -329.33 102.947)"/><text fill="#000000" fill-opacity="1" font-family="Lato,Lato_MSFontService,sans-serif" font-style="normal" font-variant="normal" font-weight="700" font-stretch="normal" font-size="688" text-anchor="start" direction="ltr" writing-mode="lr-tb" unicode-bidi="normal" text-decoration="none" transform="matrix(0.368706 0 0 0.368421 250.6 699)">CC</text></g></g></g></g><path d="M4211.52 592.209C4186.75 592.209 4166.06 593.768 4149.43 596.886 4132.8 600.003 4119.44 603.988 4109.35 608.84 4099.26 613.692 4092.1 619.351 4087.85 625.817 4083.61 632.283 4081.49 639.327 4081.49 646.948 4081.49 661.963 4085.9 672.704 4094.73 679.172 4103.56 685.64 4115.09 688.873 4129.3 688.873 4138.02 688.873 4146.05 688.083 4153.38 686.503 4160.72 684.923 4167.66 682.552 4174.2 679.392 4180.73 676.232 4187.04 672.337 4193.12 667.709 4199.19 663.082 4205.33 657.607 4211.52 651.286ZM3607.76 449.449C3590.1 449.449 3575.02 453.176 3562.52 460.63 3550.03 468.083 3538.39 478.575 3527.61 492.105L3527.61 650.345C3537.24 662.271 3547.73 670.584 3559.08 675.285 3570.44 679.987 3582.65 682.337 3595.72 682.337 3608.56 682.337 3620.2 679.93 3630.64 675.113 3641.07 670.297 3649.9 662.959 3657.12 653.097 3664.35 643.236 3669.91 630.795 3673.81 615.773 3677.71 600.752 3679.66 583.036 3679.66 562.625 3679.66 541.985 3677.99 524.499 3674.67 510.165 3671.34 495.832 3666.58 484.194 3660.39 475.25 3654.2 466.306 3646.69 459.77 3637.86 455.642 3629.03 451.514 3619 449.449 3607.76 449.449ZM3202.58 448.418C3172.77 448.418 3150.75 458.451 3136.53 478.518 3122.32 498.584 3115.21 527.537 3115.21 565.378 3115.21 603.217 3122.32 632.056 3136.53 651.893 3150.75 671.731 3172.77 681.649 3202.58 681.649 3231.94 681.649 3253.67 671.788 3267.77 652.065 3281.87 632.343 3288.93 603.447 3288.93 565.378 3288.93 527.308 3281.87 498.297 3267.77 478.346 3253.67 458.393 3231.94 448.418 3202.58 448.418ZM1421.96 448.418C1392.14 448.418 1370.13 458.451 1355.91 478.518 1341.69 498.584 1334.58 527.537 1334.58 565.378 1334.58 603.217 1341.69 632.056 1355.91 651.893 1370.13 671.731 1392.14 681.649 1421.96 681.649 1451.31 681.649 1473.04 671.788 1487.15 652.065 1501.25 632.343 1508.3 603.447 1508.3 565.378 1508.3 527.308 1501.25 498.297 1487.15 478.346 1473.04 458.393 1451.31 448.418 1421.96 448.418ZM3837.15 388.906 3922.12 388.906 3922.12 741.849 3837.15 741.849ZM2326.25 388.906 2411.22 388.906 2411.22 613.193C2411.22 634.751 2416.21 651.435 2426.18 663.245 2436.16 675.056 2451.12 680.961 2471.07 680.961 2485.75 680.961 2499.51 677.693 2512.35 671.157 2525.2 664.622 2537.35 655.62 2548.82 644.154L2548.82 388.906 2633.79 388.906 2633.79 741.849 2581.84 741.849C2570.83 741.849 2563.61 736.689 2560.17 726.37L2554.32 698.161C2546.98 705.5 2539.41 712.208 2531.62 718.285 2523.82 724.363 2515.51 729.523 2506.68 733.766 2497.85 738.008 2488.33 741.333 2478.13 743.742 2467.92 746.149 2456.97 747.354 2445.27 747.354 2426.01 747.354 2408.98 744.086 2394.19 737.549 2379.4 731.013 2366.96 721.783 2356.87 709.857 2346.77 697.932 2339.15 683.771 2333.99 667.373 2328.83 650.976 2326.25 632.916 2326.25 613.193ZM3202.58 383.402C3228.96 383.402 3252.86 387.644 3274.31 396.13 3295.75 404.615 3314.04 416.655 3329.18 432.25 3344.31 447.844 3356.01 466.879 3364.26 489.353 3372.52 511.828 3376.65 536.94 3376.65 564.69 3376.65 592.668 3372.52 617.895 3364.26 640.37 3356.01 662.844 3344.31 681.993 3329.18 697.818 3314.04 713.641 3295.75 725.796 3274.31 734.281 3252.86 742.767 3228.96 747.009 3202.58 747.01 3176.21 747.009 3152.24 742.767 3130.69 734.281 3109.13 725.796 3090.73 713.641 3075.48 697.818 3060.22 681.993 3048.41 662.844 3040.04 640.37 3031.67 617.895 3027.49 592.668 3027.49 564.69 3027.49 536.94 3031.67 511.828 3040.04 489.353 3048.41 466.879 3060.22 447.844 3075.48 432.25 3090.73 416.655 3109.13 404.615 3130.69 396.13 3152.24 387.644 3176.21 383.402 3202.58 383.402ZM2871.78 383.402C2898.15 383.402 2921.26 387.644 2941.09 396.13 2960.93 404.615 2978.76 416.77 2994.59 432.594L2972.23 463.553C2969.7 466.764 2967.24 469.287 2964.83 471.122 2962.42 472.956 2958.93 473.874 2954.34 473.874 2949.98 473.874 2945.74 472.555 2941.61 469.918 2937.48 467.28 2932.55 464.299 2926.82 460.974 2921.09 457.648 2914.26 454.667 2906.35 452.03 2898.44 449.392 2888.63 448.074 2876.94 448.074 2862.03 448.074 2848.96 450.768 2837.72 456.158 2826.49 461.547 2817.14 469.287 2809.69 479.378 2802.23 489.468 2796.67 501.68 2793 516.013 2789.33 530.347 2787.5 546.572 2787.5 564.69 2787.5 583.495 2789.51 600.236 2793.52 614.914 2797.53 629.591 2803.32 641.917 2810.89 651.893 2818.46 661.87 2827.63 669.438 2838.41 674.597 2849.19 679.758 2861.34 682.337 2874.87 682.337 2888.41 682.337 2899.36 680.675 2907.73 677.349 2916.1 674.024 2923.15 670.355 2928.88 666.341 2934.62 662.328 2939.6 658.659 2943.85 655.333 2948.09 652.008 2952.85 650.345 2958.12 650.345 2965 650.345 2970.16 652.983 2973.6 658.258L2998.03 689.217C2988.62 700.225 2978.42 709.456 2967.41 716.909 2956.4 724.363 2944.99 730.326 2933.18 734.797 2921.37 739.269 2909.16 742.423 2896.55 744.258 2883.93 746.092 2871.43 747.009 2859.05 747.01 2837.26 747.009 2816.74 742.939 2797.47 734.797 2778.21 726.656 2761.41 714.788 2747.08 699.193 2732.75 683.599 2721.39 664.507 2713.02 641.917 2704.65 619.328 2700.47 593.586 2700.47 564.69 2700.47 538.775 2704.19 514.752 2711.65 492.621 2719.1 470.491 2730.05 451.342 2744.5 435.173 2758.95 419.005 2776.83 406.335 2798.16 397.161 2819.49 387.988 2844.03 383.402 2871.78 383.402ZM2131.26 383.402C2150.52 383.402 2167.61 386.669 2182.51 393.206 2197.42 399.742 2209.86 408.915 2219.84 420.725 2229.81 432.536 2237.38 446.64 2242.54 463.038 2247.7 479.435 2250.28 497.495 2250.28 517.218L2250.28 741.849 2165.31 741.849 2165.31 517.218C2165.31 495.66 2160.32 478.976 2150.35 467.165 2140.37 455.355 2125.41 449.449 2105.46 449.449 2090.78 449.449 2077.02 452.775 2064.18 459.426 2051.33 466.076 2039.18 475.135 2027.71 486.602L2027.71 741.849 1942.74 741.849 1942.74 388.906 1994.69 388.906C2005.7 388.906 2012.92 394.066 2016.36 404.385L2022.21 432.25C2029.32 424.911 2036.83 418.26 2044.74 412.298 2052.65 406.335 2061.02 401.175 2069.85 396.818 2078.68 392.46 2088.14 389.135 2098.23 386.841 2108.32 384.548 2119.33 383.402 2131.26 383.402ZM1421.96 383.402C1448.33 383.402 1472.24 387.644 1493.68 396.13 1515.12 404.615 1533.41 416.655 1548.55 432.25 1563.69 447.844 1575.38 466.879 1583.64 489.353 1591.89 511.828 1596.02 536.94 1596.02 564.69 1596.02 592.668 1591.89 617.895 1583.64 640.37 1575.38 662.844 1563.69 681.993 1548.55 697.818 1533.41 713.641 1515.12 725.796 1493.68 734.281 1472.24 742.767 1448.33 747.009 1421.96 747.01 1395.58 747.009 1371.62 742.767 1350.06 734.281 1328.5 725.796 1310.1 713.641 1294.85 697.818 1279.6 681.993 1267.79 662.844 1259.42 640.37 1251.05 617.895 1246.86 592.668 1246.86 564.69 1246.86 536.94 1251.05 511.828 1259.42 489.353 1267.79 466.879 1279.6 447.844 1294.85 432.25 1310.1 416.655 1328.5 404.615 1350.06 396.13 1371.62 387.644 1395.58 383.402 1421.96 383.402ZM1091.15 383.402C1117.53 383.402 1140.63 387.644 1160.47 396.13 1180.31 404.615 1198.14 416.77 1213.96 432.594L1191.6 463.553C1189.08 466.764 1186.61 469.287 1184.21 471.122 1181.8 472.956 1178.3 473.874 1173.71 473.874 1169.36 473.874 1165.11 472.555 1160.99 469.918 1156.86 467.28 1151.93 464.299 1146.19 460.974 1140.46 457.648 1133.64 454.667 1125.73 452.03 1117.81 449.392 1108.01 448.074 1096.31 448.074 1081.41 448.074 1068.33 450.768 1057.1 456.158 1045.86 461.547 1036.52 469.287 1029.06 479.378 1021.61 489.468 1016.05 501.68 1012.38 516.013 1008.71 530.347 1006.87 546.572 1006.87 564.69 1006.87 583.495 1008.88 600.236 1012.89 614.914 1016.91 629.591 1022.7 641.917 1030.27 651.893 1037.83 661.87 1047.01 669.438 1057.79 674.597 1068.56 679.758 1080.72 682.337 1094.25 682.337 1107.78 682.337 1118.73 680.675 1127.1 677.349 1135.47 674.024 1142.52 670.355 1148.26 666.341 1153.99 662.328 1158.98 658.659 1163.22 655.333 1167.46 652.008 1172.22 650.345 1177.5 650.345 1184.38 650.345 1189.54 652.983 1192.98 658.258L1217.4 689.217C1208 700.225 1197.79 709.456 1186.79 716.909 1175.78 724.363 1164.37 730.326 1152.56 734.797 1140.75 739.269 1128.54 742.423 1115.92 744.258 1103.31 746.092 1090.81 747.009 1078.43 747.01 1056.64 747.009 1036.11 742.939 1016.85 734.797 997.586 726.656 980.787 714.788 966.454 699.193 952.12 683.599 940.768 664.507 932.398 641.917 924.027 619.328 919.842 593.586 919.842 564.69 919.842 538.775 923.568 514.752 931.022 492.621 938.475 470.491 949.426 451.342 963.874 435.173 978.322 419.005 996.21 406.335 1017.54 397.161 1038.87 387.988 1063.4 383.402 1091.15 383.402ZM4163.7 382.37C4184.34 382.37 4202.75 385.752 4218.92 392.518 4235.08 399.283 4248.79 408.686 4260.02 420.725 4271.26 432.766 4279.8 447.156 4285.65 463.898 4291.5 480.639 4294.42 498.986 4294.42 518.938L4294.42 741.849 4256.24 741.849C4248.21 741.849 4241.91 740.646 4237.32 738.237 4232.73 735.829 4229.29 730.956 4227 723.617L4219.43 698.505C4210.49 706.532 4201.72 713.584 4193.12 719.661 4184.52 725.739 4175.63 730.841 4166.46 734.969 4157.28 739.097 4147.54 742.193 4137.22 744.258 4126.9 746.321 4115.43 747.354 4102.82 747.354 4087.91 747.354 4074.15 745.341 4061.54 741.315 4048.92 737.289 4038.09 731.249 4029.03 723.196 4019.97 715.142 4012.92 705.132 4007.87 693.165 4002.83 681.199 4000.3 667.279 4000.3 651.404 4000.3 638.056 4003.8 624.882 4010.8 611.882 4017.79 598.882 4029.43 587.147 4045.71 576.678 4062 566.21 4083.67 557.524 4110.73 550.62 4137.79 543.717 4171.39 540.266 4211.52 540.266L4211.52 519.47C4211.52 495.666 4206.53 478.044 4196.56 466.607 4186.58 455.169 4172.08 449.449 4153.04 449.449 4139.28 449.449 4127.81 451.055 4118.64 454.266 4109.47 457.476 4101.5 461.088 4094.73 465.102 4087.97 469.115 4081.72 472.727 4075.98 475.938 4070.25 479.148 4063.94 480.754 4057.06 480.754 4051.33 480.754 4046.4 479.263 4042.27 476.281 4038.14 473.3 4034.82 469.631 4032.3 465.273L4016.82 438.098C4057.41 400.945 4106.37 382.37 4163.7 382.37ZM3637 382.37C3656.26 382.37 3673.87 386.383 3689.8 394.41 3705.74 402.436 3719.5 414.075 3731.08 429.326 3742.67 444.576 3751.61 463.382 3757.92 485.742 3764.22 508.102 3767.38 533.729 3767.38 562.625 3767.38 588.999 3763.82 613.423 3756.71 635.897 3749.6 658.372 3739.45 677.865 3726.27 694.378 3713.08 710.889 3697.14 723.789 3678.45 733.078 3659.76 742.365 3638.83 747.009 3615.67 747.01 3595.72 747.009 3578.81 743.971 3564.93 737.893 3551.06 731.816 3538.62 723.388 3527.61 712.609L3527.61 857.089 3442.64 857.089 3442.64 388.906 3494.58 388.906C3500.09 388.906 3504.79 390.167 3508.69 392.69 3512.59 395.212 3515.11 399.111 3516.26 404.385L3523.14 437.066C3537.35 420.783 3553.7 407.596 3572.16 397.505 3590.62 387.415 3612.23 382.37 3637 382.37ZM1843.65 382.37C1861.08 382.37 1875.52 386.383 1886.99 394.41L1875.98 458.049C1875.3 462.178 1873.8 465.102 1871.51 466.822 1869.22 468.542 1866.12 469.402 1862.22 469.402 1858.78 469.402 1854.08 468.599 1848.12 466.993 1842.16 465.388 1834.24 464.586 1824.38 464.586 1806.72 464.586 1791.59 469.459 1778.98 479.206 1766.36 488.952 1755.7 503.228 1746.98 522.034L1746.98 741.849 1662.02 741.849 1662.02 388.906 1711.9 388.906C1720.61 388.906 1726.69 390.511 1730.13 393.721 1733.57 396.932 1735.86 402.436 1737.01 410.234L1742.17 452.889C1754.78 431.103 1769.57 413.903 1786.54 401.29 1803.51 388.676 1822.55 382.37 1843.65 382.37ZM3879.81 231.698C3887.38 231.698 3894.49 233.131 3901.14 235.997 3907.79 238.864 3913.58 242.706 3918.51 247.522 3923.44 252.337 3927.4 258.071 3930.38 264.721 3933.36 271.372 3934.85 278.482 3934.85 286.049 3934.85 293.388 3933.36 300.268 3930.38 306.69 3927.4 313.111 3923.44 318.729 3918.51 323.546 3913.58 328.362 3907.79 332.203 3901.14 335.07 3894.49 337.936 3887.38 339.37 3879.81 339.37 3872.47 339.37 3865.53 337.936 3859 335.07 3852.46 332.203 3846.79 328.362 3841.97 323.546 3837.15 318.729 3833.31 313.111 3830.45 306.69 3827.58 300.268 3826.15 293.388 3826.15 286.049 3826.15 278.482 3827.58 271.372 3830.45 264.721 3833.31 258.071 3837.15 252.337 3841.97 247.522 3846.79 242.706 3852.46 238.864 3859 235.997 3865.53 233.131 3872.47 231.698 3879.81 231.698Z" stroke="#843C0C" stroke-width="10" stroke-linecap="butt" stroke-linejoin="round" stroke-miterlimit="10" stroke-opacity="1" fill="#FBE5D6" fill-rule="evenodd" fill-opacity="1"/><text fill="#000000" fill-opacity="0" font-family="Arial,Arial_MSFontService,sans-serif" font-size="625.392" direction="ltr" writing-mode="lr-tb" x="919.842" y="778.915">cornucopia</text></g></svg>